<?xml version="1.0" encoding="UTF-8"?><svg id="Dypta" xmlns="http://www.w3.org/2000/svg" viewBox="0 0 64 64"><g><path d="M53.9772,26.3436c-.4097,.1792-.8213,.3467-1.2335,.5097-.3974,.4244-.8313,.7868-1.2911,1.1047,.644,2.1058,1.0064,4.3148,1.0064,6.5825,0,12.6875-10.3174,23.0093-22.9995,23.0093S6.46,47.228,6.46,34.5405c0-12.4043,10.0893-22.7177,22.4902-22.9902,.8286-.0181,1.4849-.7041,1.4668-1.5322-.0176-.8286-.729-1.5235-1.5322-1.4668-14.0196,.3076-25.4248,11.9663-25.4248,25.9892,0,14.3418,11.6635,26.0093,25.9995,26.0093s25.9995-11.6675,25.9995-26.0093c0-2.8539-.496-5.6296-1.3914-8.2472-.0306,.0143-.0597,.0368-.0904,.0503Z" style="fill:#293a4c;"/><path d="M46.9736,29.7458c-.0409,.0076-.0828,.0112-.1238,.0184-.4757,.2109-.9562,.4108-1.4467,.5816-.0738,.0503-.1434,.1068-.2179,.1558,.3443,1.3005,.5462,2.6501,.5462,4.0389,0,8.9781-7.2998,16.2823-16.2719,16.2823s-16.272-7.3042-16.272-16.2823c0-7.9384,5.6758-14.6816,13.4951-16.0332,.8164-.1411,1.3638-.917,1.2227-1.7334-.1411-.8169-.9195-1.3667-1.7334-1.2226-9.2622,1.601-15.9844,9.5874-15.9844,18.9892,0,10.6324,8.6455,19.2823,19.272,19.2823s19.2719-8.6499,19.2719-19.2823c0-1.7309-.2713-3.4079-.7219-5.021-.3391,.0982-.6838,.1757-1.0359,.2263Z" style="fill:#293a4c;"/><path d="M41.5665,32.1584c-.9308,.2502-1.8616,.3683-2.7924,.3625,.1492,.654,.2308,1.3294,.2308,2.0196,0,5.2632-4.2822,9.5449-9.5454,9.5449s-9.5449-4.2817-9.5449-9.5449c0-3.4267,1.851-6.601,4.83-8.2832,.7217-.4072,.9761-1.3222,.5689-2.0434-.4077-.7212-1.3228-.9766-2.0435-.5689-3.9204,2.2134-6.3554,6.3882-6.3554,10.8955,0,6.9175,5.6274,12.5449,12.5449,12.5449s12.5454-5.6274,12.5454-12.5449c0-.833-.1001-1.6466-.2677-2.44-.0582,.0164-.112,.0424-.1707,.0579Z" style="fill:#293a4c;"/></g><path d="M60.4707,24.7925c-3.1885-10.1353-11.1367-18.0874-21.2627-21.273-.75-.2363-1.6084,.1856-1.873,.9253l-1.7328,4.8449c.4576,.1128,.9148,.2273,1.3851,.3709,6.6377,2.0059,12.3037,6.7041,15.54,12.8887,.3838,.7339,.1006,1.6402-.6337,2.0244-.2217,.1162-.46,.1714-.6944,.1714-.54,0-1.0625-.293-1.3301-.8052-2.8652-5.4751-7.8789-9.6333-13.7539-11.4086-.5202-.1591-1.0259-.2935-1.5259-.4094l-1.2727,3.5586c.461,.0952,.9229,.1889,1.3748,.318,5.0899,1.4283,9.4199,4.9561,11.8731,9.6773,.3818,.7348,.0957,1.6406-.6397,2.0224-.2207,.1148-.457,.1695-.6904,.1695-.542,0-1.0645-.2949-1.3321-.8091-2.0722-3.9873-5.7275-6.9668-10.0283-8.1733-.5184-.1482-1.0439-.2695-1.5732-.3645l-1.2849,3.5925c.4444,.0555,.8842,.1272,1.3062,.2295,.0036,.0009,.0075,.0013,.0111,.0022,.003,.0006,.006,.0005,.0091,.0012,.002,.0005,.0038,.0012,.0058,.0017,.0037,.0009,.0077,.0013,.0113,.0022,.006,.0015,.0111,.0045,.017,.006,3.5604,.8445,6.5587,3.1926,8.2281,6.4496,.3779,.7368,.0869,1.6411-.6504,2.019-.2197,.1123-.4531,.1655-.6836,.1655-.5449,0-1.0703-.2978-1.3359-.8164-1.2725-2.4819-3.5606-4.2705-6.2769-4.9067-.0029-.0007-.0054-.0021-.0082-.0028-.003-.0008-.0059-.0004-.0089-.0011-.5276-.1303-1.1028-.2092-1.6651-.2407l-1.6225,4.5368c-2.2868,.5064-4.0049,2.5433-4.0049,4.9803,0,2.8164,2.2911,5.1079,5.1075,5.1079,2.4351,0,4.4707-1.716,4.9792-4.0003l25.1111-8.9924c.7588-.272,1.167-1.0938,.9248-1.8623Z" style="fill:#ff5f00;"/></svg>